<svg width="291" height="277" viewBox="0 0 291 277" fill="none" xmlns="http://www.w3.org/2000/svg">
<path d="M15.6262 259.57V221.156H0.868124V208.568H46.0106V221.156H31.2525V259.57H15.6262ZM74.9045 260.439C69.2135 260.439 64.27 259.353 60.074 257.183C55.9263 254.965 52.695 251.878 50.38 247.923C48.1132 243.968 46.9798 239.338 46.9798 234.033C46.9798 228.728 48.1132 224.122 50.38 220.216C52.695 216.261 55.9263 213.198 60.074 211.028C64.27 208.809 69.2135 207.7 74.9045 207.7C78.377 207.7 81.5601 208.158 84.4539 209.075C87.3958 209.943 89.8314 211.197 91.7606 212.836L87.2029 225.063C85.0326 223.616 83.0793 222.627 81.3431 222.096C79.6068 221.518 77.6536 221.228 75.4832 221.228C71.5767 221.228 68.5624 222.338 66.4403 224.556C64.3664 226.726 63.3295 229.885 63.3295 234.033C63.3295 238.229 64.3664 241.436 66.4403 243.655C68.5624 245.825 71.5767 246.91 75.4832 246.91C77.6536 246.91 79.6068 246.645 81.3431 246.115C83.0793 245.536 85.0326 244.523 87.2029 243.076L91.7606 255.302C89.8314 256.942 87.3958 258.22 84.4539 259.136C81.5601 260.005 78.377 260.439 74.9045 260.439ZM122.663 260.439C116.972 260.439 112.028 259.353 107.832 257.183C103.684 254.965 100.453 251.878 98.1381 247.923C95.8713 243.968 94.738 239.338 94.738 234.033C94.738 228.728 95.8713 224.122 98.1381 220.216C100.453 216.261 103.684 213.198 107.832 211.028C112.028 208.809 116.972 207.7 122.663 207.7C126.135 207.7 129.318 208.158 132.212 209.075C135.154 209.943 137.59 211.197 139.519 212.836L134.961 225.063C132.791 223.616 130.837 222.627 129.101 222.096C127.365 221.518 125.412 221.228 123.241 221.228C119.335 221.228 116.32 222.338 114.198 224.556C112.125 226.726 111.088 229.885 111.088 234.033C111.088 238.229 112.125 241.436 114.198 243.655C116.32 245.825 119.335 246.91 123.241 246.91C125.412 246.91 127.365 246.645 129.101 246.115C130.837 245.536 132.791 244.523 134.961 243.076L139.519 255.302C137.59 256.942 135.154 258.22 132.212 259.136C129.318 260.005 126.135 260.439 122.663 260.439ZM162.554 260.439C155.609 260.439 150.231 258.702 146.421 255.23C142.611 251.757 140.706 247.031 140.706 241.05C140.706 237.337 141.478 234.033 143.021 231.139C144.613 228.246 146.831 225.979 149.677 224.339C152.57 222.651 155.947 221.807 159.805 221.807C163.663 221.807 166.87 222.651 169.427 224.339C171.983 226.027 173.888 228.342 175.142 231.284C176.396 234.178 177.023 237.506 177.023 241.268V244.161H153.439V237.361H165.809L164.58 238.374C164.58 236.011 164.17 234.298 163.35 233.237C162.53 232.128 161.396 231.573 159.95 231.573C158.262 231.573 156.983 232.249 156.115 233.599C155.295 234.901 154.885 237.023 154.885 239.965V241.485C154.885 244.282 155.561 246.307 156.911 247.561C158.31 248.767 160.359 249.37 163.06 249.37C164.893 249.37 166.629 249.201 168.269 248.864C169.909 248.478 171.476 247.875 172.971 247.055L176.733 256.821C174.804 257.979 172.634 258.871 170.222 259.498C167.859 260.125 165.303 260.439 162.554 260.439ZM182.353 259.57V233.165C182.353 231.429 182.305 229.693 182.209 227.956C182.112 226.172 181.968 224.411 181.775 222.675H196.243L197.907 234.757H195.665C196.147 231.815 196.87 229.403 197.835 227.522C198.848 225.593 200.15 224.17 201.742 223.254C203.333 222.289 205.262 221.807 207.529 221.807C208.638 221.807 209.434 221.855 209.916 221.952C210.447 222.048 211.002 222.217 211.58 222.458V235.625C210.278 235.046 209.241 234.684 208.47 234.54C207.698 234.347 206.685 234.25 205.431 234.25C203.454 234.25 201.886 234.564 200.729 235.191C199.571 235.769 198.751 236.758 198.269 238.157C197.787 239.555 197.546 241.46 197.546 243.872V259.57H182.353ZM237.66 260.439C231.92 260.439 227.628 259.136 224.782 256.532C221.937 253.879 220.514 249.876 220.514 244.523V233.671H213.714V222.675H220.514V214.356L235.562 210.883V222.675H244.098V233.671H235.562V244.089C235.562 245.97 236.02 247.176 236.936 247.706C237.901 248.237 238.962 248.502 240.119 248.502C240.939 248.502 241.614 248.454 242.145 248.357C242.724 248.261 243.375 248.092 244.098 247.851V259.281C242.941 259.763 241.807 260.077 240.698 260.222C239.637 260.366 238.624 260.439 237.66 260.439ZM267.444 260.439C263.2 260.439 259.511 259.667 256.376 258.124C253.241 256.532 250.805 254.289 249.069 251.396C247.381 248.502 246.537 245.078 246.537 241.123C246.537 237.12 247.381 233.696 249.069 230.85C250.805 227.956 253.241 225.738 256.376 224.194C259.511 222.603 263.2 221.807 267.444 221.807C271.688 221.807 275.354 222.603 278.441 224.194C281.575 225.738 283.987 227.956 285.675 230.85C287.411 233.696 288.279 237.12 288.279 241.123C288.279 245.078 287.411 248.502 285.675 251.396C283.987 254.289 281.575 256.532 278.441 258.124C275.354 259.667 271.688 260.439 267.444 260.439ZM267.444 249.37C269.181 249.37 270.555 248.743 271.568 247.489C272.581 246.235 273.087 244.113 273.087 241.123C273.087 238.133 272.581 236.011 271.568 234.757C270.555 233.503 269.181 232.876 267.444 232.876C265.66 232.876 264.261 233.503 263.248 234.757C262.236 236.011 261.729 238.133 261.729 241.123C261.729 244.113 262.236 246.235 263.248 247.489C264.261 248.743 265.66 249.37 267.444 249.37Z" fill="white"/>
<path fill-rule="evenodd" clip-rule="evenodd" d="M106.922 0.637818C101.537 1.33309 93.5237 3.75667 87.8702 6.4002C82.0754 9.10931 77.327 12.3518 56.3458 27.9228C47.5486 34.4513 35.4425 43.405 29.4435 47.8192C15.8467 57.8252 10.8528 62.9062 7.21121 70.4399C2.80593 79.5532 1.76539 89.0311 3.9849 99.8217C6.68309 112.936 14.848 123.495 26.9733 129.551C30.1316 131.129 33.6761 132.46 89.208 152.939C154.426 176.99 159.368 178.778 162.361 179.419C167.139 180.441 174.15 179.807 178.115 177.994C184.542 175.055 186.702 172.876 203.922 151.954C213.126 140.77 221.131 130.878 221.712 129.971C222.537 128.681 222.629 128.065 222.135 127.143C221.194 125.388 219.528 124.683 217.839 125.323C217.048 125.623 207.1 132.78 195.732 141.226C173.351 157.855 171.587 158.867 166.049 158.256C164.275 158.06 149.346 152.857 129.05 145.359C110.336 138.446 89.1353 130.625 81.9376 127.978C50.594 116.452 37.3473 111.302 34.7306 109.627C30.9482 107.205 26.533 102.27 24.5729 98.2727C23.2904 95.6565 22.9106 93.9502 22.7187 89.9457C22.1877 78.8673 27.872 68.6396 36.9611 64.3183C40.4881 62.6416 47.8656 60.9882 48.5909 61.7119C48.9381 62.0578 45.5262 97.5316 44.9958 99.0963C44.8603 99.4955 44.8987 99.8217 45.0813 99.8217C45.2639 99.8217 48.674 97.0145 52.6588 93.5829C56.6441 90.1512 60.0903 87.2772 60.3171 87.1954C60.5446 87.1136 63.0694 91.7385 65.9293 97.473C68.7886 103.208 71.2245 107.803 71.342 107.686C71.5421 107.486 77.502 85.8107 82.0021 68.9182L83.9733 61.5192L130.588 61.5186C158.529 61.518 179.551 61.2778 183.065 60.9179C193.658 59.8333 203.318 56.6709 211.892 51.4819C214.638 49.8197 226.109 41.6082 237.383 33.2342C248.657 24.8603 261.676 15.1973 266.315 11.761C275.459 4.98761 276.4 3.6789 273.912 1.19613L272.713 3.8147e-06L191.721 0.0731331C147.175 0.113758 109.015 0.367951 106.922 0.637818ZM224.978 64.4076C224.476 64.7007 218.326 67.2891 211.31 70.159C204.295 73.0295 196.068 76.4019 193.029 77.6538C181.141 82.552 180.49 82.5764 128.759 80.0872C84.5834 77.9613 86.8215 77.9857 86.3905 79.6287C86.2062 80.3333 86.1393 80.9931 86.2422 81.0964C86.4766 81.3297 110.244 85.1381 128.759 87.9087C136.436 89.0572 149.011 91.0328 156.702 92.2979C179.933 96.1196 186.321 95.3332 198.326 87.1734C200.691 85.5658 208.123 80.8527 214.84 76.7002C221.558 72.5477 227.644 68.7267 228.363 68.209C231.471 65.9734 228.333 62.4495 224.978 64.4076ZM225.31 89.9219C208.942 99.6447 186.431 112.44 183.723 113.56C177.54 116.118 182.577 116.981 100.259 99.2646C91.3018 97.3366 83.5458 95.7598 83.0235 95.7592C82.0347 95.7592 81.0814 98.0806 81.8113 98.7115C82.0405 98.9094 103.476 106.162 129.445 114.826C162.62 125.895 177.41 130.577 179.175 130.568C183.748 130.545 183.995 130.376 207.279 111.433C229.233 93.5718 233.744 89.7757 233.744 89.1617C233.744 88.0561 232.474 87.048 231.155 87.106C230.5 87.1345 227.869 88.402 225.31 89.9219Z" fill="white"/>
</svg>
