<svg width="273" height="180" viewBox="0 0 273 180" fill="none" xmlns="http://www.w3.org/2000/svg">
<path fill-rule="evenodd" clip-rule="evenodd" d="M104.446 0.637814C99.0609 1.33308 91.0478 3.75666 85.3943 6.4002C79.5995 9.10931 74.8511 12.3518 53.8698 27.9228C45.0726 34.4513 32.9666 43.405 26.9676 47.8192C13.3708 57.8252 8.37689 62.9062 4.73529 70.4399C0.33001 79.5532 -0.710528 89.0311 1.50898 99.8217C4.20717 112.936 12.3721 123.495 24.4974 129.551C27.6557 131.129 31.2001 132.46 86.732 152.939C151.95 176.99 156.892 178.778 159.885 179.419C164.663 180.441 171.674 179.807 175.639 177.994C182.066 175.055 184.226 172.876 201.446 151.954C210.65 140.77 218.656 130.878 219.236 129.971C220.061 128.681 220.153 128.065 219.659 127.143C218.718 125.388 217.053 124.683 215.363 125.323C214.572 125.623 204.624 132.78 193.256 141.226C170.875 157.855 169.111 158.867 163.573 158.256C161.799 158.06 146.87 152.857 126.574 145.359C107.86 138.446 86.6593 130.625 79.4616 127.978C48.1181 116.452 34.8714 111.302 32.2546 109.627C28.4723 107.205 24.0571 102.27 22.097 98.2727C20.8145 95.6565 20.4347 93.9502 20.2428 89.9457C19.7117 78.8673 25.396 68.6396 34.4852 64.3183C38.0122 62.6416 45.3896 60.9882 46.1149 61.7119C46.4622 62.0578 43.0503 97.5316 42.5199 99.0963C42.3843 99.4955 42.4227 99.8217 42.6054 99.8217C42.788 99.8217 46.1981 97.0145 50.1829 93.5828C54.1682 90.1512 57.6144 87.2772 57.8412 87.1954C58.0686 87.1136 60.5935 91.7385 63.4534 97.473C66.3127 103.208 68.7486 107.803 68.8661 107.686C69.0661 107.486 75.0261 85.8107 79.5262 68.9182L81.4974 61.5192L128.112 61.5186C156.053 61.518 177.075 61.2778 180.589 60.9179C191.182 59.8332 200.842 56.6709 209.416 51.4819C212.162 49.8197 223.633 41.6082 234.907 33.2342C246.181 24.8602 259.201 15.1973 263.839 11.761C272.983 4.9876 273.924 3.6789 271.436 1.19612L270.237 0L189.245 0.0731293C144.699 0.113754 106.54 0.367947 104.446 0.637814ZM222.502 64.4076C222 64.7007 215.85 67.2891 208.834 70.159C201.819 73.0294 193.592 76.4019 190.553 77.6537C178.665 82.552 178.015 82.5763 126.283 80.0872C82.1075 77.9613 84.3456 77.9857 83.9146 79.6287C83.7302 80.3333 83.6634 80.9931 83.7663 81.0964C84.0007 81.3297 107.768 85.138 126.283 87.9087C133.961 89.0572 146.535 91.0328 154.226 92.2979C177.457 96.1196 183.845 95.3332 195.85 87.1734C198.215 85.5658 205.647 80.8527 212.365 76.7002C219.082 72.5477 225.168 68.7267 225.888 68.209C228.995 65.9734 225.857 62.4495 222.502 64.4076ZM222.834 89.9219C206.466 99.6447 183.955 112.44 181.247 113.56C175.065 116.118 180.101 116.981 97.7831 99.2646C88.8259 97.3366 81.0699 95.7598 80.5476 95.7592C79.5588 95.7592 78.6055 98.0806 79.3354 98.7115C79.5646 98.9094 101 106.162 126.969 114.826C160.144 125.895 174.934 130.577 176.699 130.568C181.272 130.545 181.519 130.376 204.803 111.433C226.757 93.5718 231.268 89.7757 231.268 89.1617C231.268 88.0561 229.999 87.048 228.679 87.106C228.024 87.1345 225.393 88.402 222.834 89.9219Z" fill="#4965BF"/>
</svg>
